<?xml version="1.0" encoding="UTF-8" standalone="no"?>
<!DOCTYPE svg PUBLIC "-//W3C//DTD SVG 1.1//EN" "http://www.w3.org/Graphics/SVG/1.1/DTD/svg11.dtd">
<svg width="100%" height="100%" viewBox="0 0 2048 1536" version="1.1" xmlns="http://www.w3.org/2000/svg" xmlns:xlink="http://www.w3.org/1999/xlink" xml:space="preserve" xmlns:serif="http://www.serif.com/" style="fill-rule:evenodd;clip-rule:evenodd;stroke-linecap:round;stroke-linejoin:round;stroke-miterlimit:1.5;">
    <g transform="matrix(1,0,0,1,0,37.7086)">
        <g transform="matrix(2.12921,0,0,2.25702,-653.433,-933.445)">
            <path d="M588.679,704.945C480.039,704.945 484.55,783.513 519.698,783.513C533.795,783.513 542.629,776.746 544.133,770.355C545.449,763.965 536.99,763.401 536.99,755.131C536.99,737.65 556.538,718.479 587.927,718.479C638.113,718.479 613.49,769.228 584.732,771.483C588.491,760.206 592.626,748.74 597.325,737.087C599.205,732.576 602.212,732.576 601.836,729.756C601.085,722.614 583.792,719.606 576.838,730.132C569.883,740.846 552.591,773.175 541.501,794.414C537.93,801.557 521.954,833.51 510.112,833.51C501.278,833.51 503.158,816.969 513.308,814.714C523.457,812.458 523.081,797.985 503.91,797.985C463.122,797.985 451.281,871.854 501.466,871.854C520.45,871.854 534.171,865.839 544.885,855.313C552.027,860.952 564.433,867.718 583.416,867.718C638.301,867.718 663.487,803.624 617.813,782.009C674.953,763.213 660.292,704.945 588.679,704.945ZM586.988,826.179C570.447,826.179 571.575,809.263 571.575,809.263C574.206,802.309 576.65,795.166 579.281,787.648L579.469,787.648C621.76,789.715 613.866,826.179 586.988,826.179Z" style="fill-rule:nonzero;"/>
        </g>
        <g transform="matrix(2.12921,0,0,2.25702,-653.433,-933.445)">
            <path d="M751.076,804.376C739.987,819.413 730.401,826.179 708.973,826.179C696.944,826.179 690.741,821.292 688.674,815.09C691.493,816.969 695.628,818.661 702.019,818.661C739.987,818.661 747.129,770.355 708.41,770.355C653.901,770.355 621.948,864.711 694.876,864.711C720.063,864.711 755.399,852.494 761.602,808.887C763.106,797.985 755.775,797.985 751.076,804.376ZM702.771,790.843C709.349,790.843 705.59,805.504 696.944,805.504C693.185,805.504 690.929,803.624 689.426,801.933C692.057,795.73 697.132,790.843 702.771,790.843Z" style="fill-rule:nonzero;"/>
        </g>
        <g transform="matrix(2.12921,0,0,2.25702,-653.433,-933.445)">
            <path d="M845.991,802.118C834.902,817.155 822.501,826.179 801.074,826.179C789.044,826.179 782.842,821.292 780.774,815.09C783.593,816.969 787.728,818.661 794.119,818.661C832.087,818.661 839.229,770.355 800.51,770.355C746.001,770.355 714.048,864.711 786.977,864.711C812.163,864.711 863.948,844.488 870.15,800.881C867.124,801.722 862.013,801.14 859.5,799.634C854.189,796.45 853.413,794.842 852.087,791.652C851.286,789.724 847.84,798.986 845.991,802.118ZM794.871,790.843C801.449,790.843 797.69,805.504 789.044,805.504C785.285,805.504 783.029,803.624 781.526,801.933C784.157,795.73 789.232,790.843 794.871,790.843Z" style="fill-rule:nonzero;"/>
        </g>
        <g transform="matrix(2.12921,0,0,2.25702,-653.433,-933.445)">
            <path d="M952.193,804.564C947.306,814.526 941.479,825.616 934.337,826.367C923.999,827.495 911.594,827.119 901.444,832.006C923.059,817.721 930.014,796.106 946.554,787.46C957.08,782.009 941.667,762.461 935.653,764.341C931.85,765.777 926.116,766.409 920.315,766.816C916.664,767.071 912.986,767.238 909.745,767.459C904.632,767.808 901.119,771.858 896.86,772.33C889.761,773.117 885.23,771.507 884.155,771.686C880.236,772.338 874.285,778.781 873.36,784.35C873.112,785.848 874.018,787.049 874.476,788.47C875.051,790.256 874.857,792.291 876.302,792.288C880.176,792.281 911.59,789.008 916.857,786.708C903.699,804.564 878.889,815.654 857.086,839.525C842.613,855.125 853.514,873.357 858.213,871.102C874.378,862.644 892.798,864.899 912.534,864.899C943.359,864.899 962.719,835.201 962.719,809.075C962.719,800.429 956.704,795.542 952.193,804.564Z" style="fill-rule:nonzero;"/>
        </g>
        <g transform="matrix(2.12921,0,0,2.25702,-653.433,-933.445)">
            <path d="M982.83,722.05C974.372,722.05 967.794,724.305 967.794,727.689C967.794,730.884 971.553,730.132 970.425,735.019C969.673,737.838 955.388,791.783 952.757,800.993C951.065,807.008 949.374,813.022 948.246,816.781C942.043,836.893 938.472,864.711 967.042,864.711C995.612,864.711 1014.6,835.014 1014.6,808.887C1014.6,800.241 1008.58,795.354 1004.07,804.376C999.183,814.338 991.665,826.179 986.214,826.179C980.011,826.179 980.951,814.902 983.77,802.684C984.71,798.737 997.679,750.244 998.807,746.297C1002.94,733.139 999.559,722.05 982.83,722.05Z" style="fill-rule:nonzero;"/>
        </g>
        <g transform="matrix(2.12921,0,0,2.25702,-653.433,-933.445)">
            <path d="M1096.55,804.376C1085.46,819.413 1075.87,826.179 1054.44,826.179C1042.41,826.179 1036.21,821.292 1034.14,815.09C1036.96,816.969 1041.1,818.661 1047.49,818.661C1085.46,818.661 1092.6,770.355 1053.88,770.355C999.371,770.355 967.418,864.711 1040.35,864.711C1065.53,864.711 1100.87,852.494 1107.07,808.887C1108.58,797.985 1101.25,797.985 1096.55,804.376ZM1048.24,790.843C1054.82,790.843 1051.06,805.504 1042.41,805.504C1038.65,805.504 1036.4,803.624 1034.89,801.933C1037.53,795.73 1042.6,790.843 1048.24,790.843Z" style="fill-rule:nonzero;"/>
        </g>
    </g>
    <g transform="matrix(0.276716,0,0,0.276716,979.01,519.828)">
        <g transform="matrix(1,0,0,1,5.6324,-6.52441)">
            <path d="M1211.11,525.426C1236.57,508.667 1275.58,526.627 1286.67,558.099C1295.22,582.378 1290.76,615.028 1279.27,639.854C1266.6,667.254 1239.85,712.464 1206.55,749.911C1170.25,790.721 1105.35,837.309 1067.47,839.226C1192.86,769.462 1229.16,640.173 1211.11,525.426Z" style="fill:rgb(151,200,213);"/>
            <path d="M1211.11,525.426C1236.57,508.667 1275.58,526.627 1286.67,558.099C1295.22,582.378 1290.76,615.028 1279.27,639.854C1266.6,667.254 1239.85,712.464 1206.55,749.911C1170.25,790.721 1105.35,837.309 1067.47,839.226C1192.86,769.462 1229.16,640.173 1211.11,525.426ZM1215.04,527.251C1223.97,522.189 1234.49,521.523 1244.61,524.123C1261.32,528.417 1277.01,541.571 1283.26,559.299C1291.52,582.774 1287.1,614.332 1275.99,638.337C1263.42,665.517 1236.89,710.362 1203.85,747.509C1182.29,771.74 1150.55,798.028 1120.51,815.593C1109.16,822.229 1098.07,827.632 1087.89,831.156C1198.92,759.039 1231.55,636.858 1215.04,527.251L1215.04,527.251Z"/>
        </g>
        <g transform="matrix(1,0,0,1,172.633,16.1695)">
            <circle cx="820.267" cy="596.199" r="235.6" style="fill:url(#_Linear1);"/>
        </g>
        <g transform="matrix(1.56641,0,0,1.55206,-749.175,-225.022)">
            <path d="M1112.14,380.415C1197.94,380.415 1267.6,450.074 1267.6,535.874C1267.6,621.675 1197.94,691.334 1112.14,691.334C1026.34,691.334 956.684,621.675 956.684,535.874C956.684,450.074 1026.34,380.415 1112.14,380.415ZM1117.97,409.675C1137.73,408.05 1156.47,395.13 1172.67,401.491C1225.92,422.399 1255.42,475.245 1255.42,535.874C1255.42,614.951 1191.22,679.152 1112.14,679.152C1033.07,679.152 968.867,614.951 968.867,535.874C968.867,470.901 1007.35,417.438 1066.67,399.911C1079.55,396.106 1103.92,410.831 1117.97,409.675Z"/>
        </g>
        <g transform="matrix(1.36638,0.243153,-0.16831,0.945812,-188.745,-191.259)">
            <ellipse cx="853.521" cy="567.872" rx="42.41" ry="116.605" style="fill:white;stroke:black;stroke-width:3.03px;"/>
        </g>
        <g transform="matrix(1.35207,0.240605,-0.16852,0.946988,20.0449,-161.548)">
            <ellipse cx="853.521" cy="567.872" rx="42.41" ry="116.605" style="fill:white;stroke:black;stroke-width:3.05px;"/>
        </g>
        <g transform="matrix(1.01307,0.18028,-0.10162,0.571049,68.4869,40.85)">
            <ellipse cx="853.521" cy="567.872" rx="42.41" ry="116.605"/>
        </g>
        <g transform="matrix(1.00246,0.178391,-0.101746,0.571759,274.205,70.2458)">
            <ellipse cx="853.521" cy="567.872" rx="42.41" ry="116.605"/>
        </g>
        <g transform="matrix(0.144579,0.0257283,-0.00959079,0.053895,745.363,427.366)">
            <ellipse cx="853.521" cy="567.872" rx="42.41" ry="116.605" style="fill:white;stroke:black;stroke-width:32.61px;"/>
        </g>
        <g transform="matrix(0.144579,0.0257283,-0.00959079,0.053895,739.129,444.205)">
            <path d="M853.521,451.267C876.928,451.267 895.931,503.516 895.931,567.872C895.931,596.53 855.59,775.083 849.714,957.894C842.394,1185.61 868.191,1423.13 855.207,1423.13C842.134,1423.13 808.178,1175.78 799.932,946.722C793.414,765.671 811.111,596.283 811.111,567.872C811.111,503.516 830.114,451.267 853.521,451.267Z" style="fill:white;stroke:black;stroke-width:32.61px;"/>
        </g>
        <g transform="matrix(0.143064,0.0254587,-0.00960271,0.053962,943.451,455.735)">
            <path d="M853.521,451.267C876.928,451.267 895.931,503.516 895.931,567.872C895.931,596.406 857.768,878.135 853.652,1169.89C848.486,1536.15 876.07,1924.96 863.041,1924.96C850.126,1924.96 806.535,1556.68 796.156,1193.05C787.724,897.646 811.111,596.719 811.111,567.872C811.111,503.516 830.114,451.267 853.521,451.267Z" style="fill:white;stroke:black;stroke-width:32.91px;"/>
        </g>
        <g transform="matrix(0.997393,-0.072155,0.072155,0.997393,-54.1197,55.6922)">
            <path d="M888.456,687.378C925.112,773.379 982.379,777.487 1043.71,714.759C991.637,719.065 938.449,710.473 888.456,687.378Z" style="fill:rgb(170,87,87);"/>
            <path d="M888.456,687.378C906.784,730.378 930.265,752.906 956.83,756.842C983.395,760.778 1013.05,746.123 1043.71,714.759C991.637,719.065 938.449,710.473 888.456,687.378ZM895.621,694.511C940.502,713.631 987.699,721.43 1034.23,719.018C1007.09,744.688 981.032,756.775 957.36,753.267C933.568,749.742 912.638,730.462 895.618,694.508L895.621,694.511Z"/>
        </g>
        <path d="M1058.34,382.936C1056.25,339.223 1041.45,270.509 1012.9,241.131C980.066,207.337 930.918,191.609 900.909,172.867C874.644,156.464 857.924,133.626 867.382,112.708C890.383,61.841 985.106,72.232 1038.44,187.932C1067.84,263.512 1077.14,356.253 1058.34,382.936Z"/>
        <g transform="matrix(0.704824,-0.422398,0.410133,0.684358,56.9456,562.798)">
            <path d="M1058.34,382.936C1056.25,339.223 1041.45,270.509 1012.9,241.131C980.066,207.337 930.918,191.609 900.909,172.867C874.644,156.464 857.924,133.626 867.382,112.708C890.383,61.841 985.106,72.232 1038.44,187.932C1067.84,263.512 1077.14,356.253 1058.34,382.936Z"/>
        </g>
        <path d="M1244.43,701.692C1207.37,754.221 1149.37,805.607 1105.25,818.933C1119.69,859.877 1116.67,870.824 1120.62,904.458C1129.66,918.87 1137.84,937.778 1137.84,937.778C1138.31,938.562 1179.59,940.088 1221.95,936.369C1261.27,932.916 1301.04,924.551 1322.05,916.727C1373.43,897.593 1419.19,873.165 1438.72,855.417C1492.17,806.839 1501.74,718.663 1387.28,702.57C1344.18,695.582 1302.49,692.262 1244.43,701.692Z" style="fill:url(#_Linear2);"/>
        <path d="M1244.43,701.692C1207.37,754.221 1149.37,805.607 1105.25,818.933C1119.69,859.877 1116.67,870.824 1120.62,904.458C1129.66,918.87 1137.84,937.778 1137.84,937.778C1138.31,938.562 1179.59,940.088 1221.95,936.369C1261.27,932.916 1301.04,924.551 1322.05,916.727C1373.43,897.593 1419.19,873.165 1438.72,855.417C1492.17,806.839 1501.74,718.663 1387.28,702.57C1344.18,695.582 1302.49,692.262 1244.43,701.692ZM1140.35,934.511C1138.09,929.474 1131.42,915.016 1124.11,903.229C1120.38,870.887 1122.95,859.396 1109.88,821.239C1153.74,806.263 1209.93,756.378 1246.51,705.018L1246.51,705.019C1303.31,695.963 1344.32,699.266 1386.7,706.137L1386.74,706.143C1430.96,712.36 1456.17,729.382 1467,750.955C1483.17,783.173 1467.1,824.74 1436.29,852.743C1416.96,870.306 1371.64,894.404 1320.79,913.34C1299.98,921.09 1260.58,929.349 1221.63,932.769C1185.05,935.981 1149.27,935.267 1140.35,934.511Z"/>
        <path d="M1065.31,832.091C1065.41,831.815 1071.69,838.497 1072.29,839.147C1076.83,844.059 1080.82,849.112 1084.67,854.593C1096.63,871.572 1109.1,888.046 1120.8,905.223C1135.62,926.985 1146.3,950.923 1158.12,974.195C1169.2,996.02 1177.62,1011.73 1184.77,1035.17C1186.75,1041.67 1192.13,1055.8 1195.87,1061.45C1199.33,1066.68 1214.05,1074.06 1204.38,1082.35C1203.2,1083.36 1202.42,1084.39 1201.09,1085.16C1180.5,1097.19 1163.07,1069.73 1155.06,1053.7C1153.02,1049.64 1151.3,1045.55 1149.17,1041.52C1135.38,1015.44 1122.94,988.662 1109.98,962.051C1102.7,947.117 1096.27,931.073 1086.5,917.532C1072.73,898.47 1061.58,877.65 1047.46,858.857C1043.13,853.089 1039.09,846.267 1033.86,841.323C1032.59,840.119 1028.13,838.118 1027.49,836.538C1027.41,836.346 1029.93,836.204 1030.28,836.139C1032.35,835.742 1034.41,835.082 1036.46,834.545C1043.27,832.753 1049.89,832.379 1056.72,831.276C1058.68,830.96 1055.96,823.803 1057.87,823.437C1059.1,823.201 1065.22,819.612 1065.22,819.612C1069.43,818.934 1084.65,820.811 1065.31,832.091Z"/>
        <path d="M1193.7,1059.29C1194.11,1057.45 1198.19,1056.25 1199.71,1055.75C1206.15,1053.63 1216.42,1054.16 1222.86,1056.23C1229.33,1058.3 1236.63,1063.92 1237.51,1071.16C1237.93,1074.63 1236.29,1078.62 1235.86,1082.06C1235.46,1085.29 1235.44,1088.89 1234.34,1091.98C1231.08,1101.09 1224.57,1109.04 1215.21,1111.65C1208.16,1113.63 1199.4,1113.81 1192.14,1112.9" style="fill:none;"/>
        <path d="M1188.62,1059.57C1188.92,1058.29 1191.98,1057.78 1192.99,1057.33C1198.57,1054.87 1204.2,1052.12 1210.33,1051.37C1231.04,1048.86 1240.64,1061.37 1240.33,1084.24C1240.17,1095.4 1223.88,1111.09 1205.01,1114.43C1192.85,1116.58 1177.4,1116.18 1169.02,1112.66C1154.5,1106.54 1150.25,1069.09 1165.72,1070.03C1166.19,1070.06 1182.78,1088.76 1192.18,1087.89C1205.17,1086.68 1208.78,1075.77 1201.34,1067.55C1197.13,1062.9 1189.92,1059.41 1188.62,1059.57Z" style="fill:white;"/>
        <path d="M1188.68,1061.38C1188.81,1061.41 1189.7,1061.68 1190.41,1062C1193.07,1063.18 1197.23,1065.7 1200,1068.76C1203.18,1072.27 1204.11,1076.33 1202.75,1079.67C1201.36,1083.07 1197.66,1085.57 1192.01,1086.09C1189.33,1086.34 1186.03,1084.67 1182.71,1082.46C1177.25,1078.82 1171.85,1073.51 1169.03,1070.7C1167.82,1069.5 1167.01,1068.71 1166.79,1068.56C1166.36,1068.27 1166.01,1068.24 1165.83,1068.23C1158.68,1067.79 1154.77,1074.14 1154.21,1082.75C1153.76,1089.76 1155.47,1098.19 1158.88,1104.65C1161.26,1109.17 1164.49,1112.71 1168.32,1114.32C1176.94,1117.95 1192.82,1118.42 1205.33,1116.21C1217.06,1114.13 1227.83,1107.45 1234.6,1099.94C1239.3,1094.72 1242.07,1089.08 1242.13,1084.27C1242.33,1069.81 1238.59,1059.35 1230.99,1053.81C1225.87,1050.08 1218.94,1048.51 1210.11,1049.58C1203.8,1050.34 1198,1053.14 1192.26,1055.68C1191.52,1056.01 1189.72,1056.39 1188.6,1057.04C1187.65,1057.6 1187.05,1058.35 1186.86,1059.16C1186.73,1059.73 1186.88,1060.34 1187.28,1060.78C1187.63,1061.18 1188.15,1061.39 1188.68,1061.38ZM1165.03,1071.82L1165.06,1071.85C1167.28,1074.02 1175.09,1082.18 1182.53,1086.62C1186.03,1088.71 1189.5,1089.95 1192.34,1089.69C1199.69,1089.01 1204.29,1085.45 1206.09,1081.04C1207.92,1076.56 1206.94,1071.05 1202.68,1066.34C1199.93,1063.3 1195.97,1060.72 1193.02,1059.24C1193.3,1059.15 1193.54,1059.07 1193.72,1058.99C1199.14,1056.59 1204.59,1053.89 1210.55,1053.17C1218.28,1052.23 1224.38,1053.46 1228.86,1056.73C1235.69,1061.7 1238.7,1071.23 1238.52,1084.22C1238.46,1088.33 1235.93,1093.07 1231.92,1097.52C1225.62,1104.5 1215.6,1110.72 1204.7,1112.65C1192.88,1114.74 1177.86,1114.42 1169.72,1110.99C1166.58,1109.67 1164.03,1106.67 1162.07,1102.96C1158.96,1097.07 1157.41,1089.38 1157.82,1082.98C1158,1080.26 1158.53,1077.78 1159.48,1075.81C1160.63,1073.45 1162.43,1071.88 1165.03,1071.82Z"/>
        <path d="M1236.09,1100.05C1235.78,1099.39 1238.63,1099.65 1238.85,1099.76C1239.88,1100.31 1240.36,1100.5 1241.56,1100.77C1244.94,1101.52 1248.47,1102.05 1251.89,1102.55C1262.7,1104.1 1273.58,1105.14 1284.42,1106.34C1306.87,1108.83 1329.04,1109.94 1350.99,1115.63C1360.42,1118.07 1372.76,1122.14 1377.26,1131.69C1380.91,1139.44 1375.36,1145.34 1369.3,1149.62C1356.97,1158.33 1335.95,1157.35 1322.25,1152.7C1315.97,1150.57 1309.99,1147.76 1303.85,1145.39C1302.04,1144.69 1297.56,1144.01 1296.54,1142.56C1296.02,1141.82 1294.4,1141.6 1294.4,1141.6C1294.4,1141.6 1293.73,1141.3 1294.4,1141.6C1295.7,1142.17 1299.09,1143.74 1300.44,1144.26C1304.86,1145.96 1309.2,1147.29 1313.62,1149.39C1320.61,1152.71 1330.88,1155.57 1338.91,1156C1346,1156.38 1357.07,1154.6 1361.78,1155.8C1366.48,1157 1370.22,1164.2 1369.29,1170.97C1368.73,1175.07 1366.5,1178.5 1363.81,1180.17C1357.16,1184.31 1351.25,1183.77 1343.44,1184.62C1311.14,1188.12 1277.43,1166.24 1248.96,1154.16C1240.18,1150.43 1244.26,1149.72 1235.3,1146.59C1232.48,1145.61 1228.89,1144.87 1225.95,1144.37C1224.46,1144.11 1220.03,1143.14 1220.03,1143.14C1220.03,1143.14 1226.58,1144.48 1227.52,1144.64C1229.63,1145 1228.44,1144.91 1230.56,1145.2C1236.59,1146.03 1244.6,1152.7 1250.3,1154.73C1255.29,1156.51 1244.04,1152.18 1248.96,1154.16C1253.76,1156.08 1260.19,1159.01 1264.73,1161.44C1276.26,1167.62 1288.61,1172.04 1300.5,1177.45C1307.18,1180.5 1314.04,1183.76 1316.96,1190.75C1317.71,1192.53 1317.9,1198.74 1317.14,1200.71C1315.61,1204.69 1312.67,1207.94 1309.07,1209.61C1303.04,1212.41 1295.75,1212.85 1288.74,1213.3C1285.23,1213.52 1279.5,1213.51 1276,1213.28C1242.56,1211.06 1221.01,1192.72 1195.55,1171.32C1185.59,1162.94 1179.16,1153.87 1176.71,1142.27C1176.25,1140.1 1176.54,1137.59 1176.62,1136.48C1176.63,1136.34 1176.62,1136.25 1176.62,1136.48C1176.63,1137.71 1176.42,1141.08 1176.71,1142.27C1178.19,1148.27 1178.96,1151.89 1178.32,1158.05C1177.9,1162.13 1175.91,1166.36 1174.61,1170.21C1170.97,1180.92 1166.22,1194.75 1156.12,1201.12C1152.31,1203.52 1146.04,1206.61 1141.68,1207.4C1137,1208.24 1124.65,1207.2 1121.22,1202.36C1118.41,1198.37 1116.37,1191.26 1116.4,1186.84C1116.51,1165.39 1138.97,1147.82 1153.15,1133.52C1157.07,1129.56 1160.24,1124.62 1162.08,1119.37C1162.65,1117.73 1163.36,1116.12 1163.65,1114.41C1163.8,1113.53 1163.75,1111.72 1163.75,1111.72C1163.75,1111.72 1166.3,1112.33 1167.55,1112.74C1170.12,1113.57 1172.96,1113.57 1175.57,1114.3C1182.9,1116.33 1190.59,1116.67 1198.14,1115.75C1207.54,1114.61 1217.71,1111.77 1226.07,1106.94C1228.95,1105.27 1232.35,1103.61 1234.63,1101.2C1235.5,1100.28 1236.68,1099.75 1237.51,1099.17C1237.91,1098.88 1236.2,1099.38 1236.09,1100.05Z" style="fill:white;"/>
        <path d="M1235.12,1098.33C1235.65,1097.84 1236.52,1097.46 1236.97,1097.35C1237.95,1097.11 1238.59,1097.55 1238.94,1097.95C1239.34,1098.03 1239.62,1098.12 1239.7,1098.17C1240.56,1098.63 1240.96,1098.78 1241.95,1099C1245.29,1099.75 1248.77,1100.27 1252.15,1100.76C1262.93,1102.31 1273.8,1103.34 1284.62,1104.54C1307.15,1107.04 1329.41,1108.17 1351.44,1113.88C1357.27,1115.39 1364.16,1117.52 1369.75,1121.09C1373.67,1123.59 1376.95,1126.79 1378.89,1130.92C1382.97,1139.57 1377.11,1146.32 1370.35,1151.1C1368.35,1152.51 1366.13,1153.67 1363.76,1154.62C1365.44,1155.44 1366.98,1156.86 1368.22,1158.7C1370.44,1162.02 1371.7,1166.7 1371.08,1171.22C1370.43,1175.91 1367.83,1179.8 1364.76,1181.71C1357.86,1186 1351.74,1185.54 1343.63,1186.41C1333.93,1187.46 1324.09,1186.28 1314.3,1183.76C1316.1,1185.51 1317.59,1187.57 1318.63,1190.05C1319.05,1191.06 1319.37,1193.32 1319.42,1195.61C1319.48,1197.91 1319.26,1200.24 1318.83,1201.36C1317.12,1205.79 1313.83,1209.39 1309.84,1211.25C1303.61,1214.14 1296.09,1214.64 1288.85,1215.1C1285.28,1215.33 1279.44,1215.32 1275.88,1215.08C1242.03,1212.84 1220.16,1194.36 1194.39,1172.7C1188.42,1167.68 1183.68,1162.41 1180.27,1156.53C1180.23,1157.08 1180.18,1157.65 1180.12,1158.24C1179.68,1162.45 1177.67,1166.82 1176.32,1170.8C1172.56,1181.86 1167.52,1196.07 1157.09,1202.65C1153.1,1205.16 1146.56,1208.36 1142,1209.18C1139.02,1209.71 1133.12,1209.56 1128.09,1208.21C1124.46,1207.25 1121.32,1205.62 1119.75,1203.4C1116.74,1199.14 1114.57,1191.55 1114.59,1186.83C1114.64,1177.89 1118.37,1169.57 1123.83,1161.88C1131.74,1150.73 1143.3,1140.89 1151.87,1132.25C1155.6,1128.48 1158.62,1123.78 1160.37,1118.77C1160.91,1117.23 1161.59,1115.71 1161.87,1114.1C1161.99,1113.41 1161.95,1111.82 1161.95,1111.82C1161.95,1111.82 1163.75,1113.53 1163.75,1113.53L1163.83,1113.38C1164.17,1112.75 1165.51,1110.32 1165.56,1111.7C1165.55,1110.89 1164.99,1110.16 1164.17,1109.96C1164.17,1109.96 1166.81,1110.6 1168.1,1111.02C1170.66,1111.84 1173.47,1111.84 1176.05,1112.56C1183.16,1114.52 1190.61,1114.85 1197.92,1113.96C1207.09,1112.84 1217.01,1110.09 1225.16,1105.37C1227.9,1103.79 1231.15,1102.25 1233.32,1099.95C1233.69,1099.56 1234.12,1099.22 1234.55,1098.92C1234.68,1098.71 1234.87,1098.5 1235.12,1098.33ZM1237.22,1101.46C1237.11,1101.55 1236.98,1101.63 1236.84,1101.69C1236.53,1101.91 1236.22,1102.15 1235.94,1102.44C1233.54,1104.97 1230,1106.75 1226.97,1108.5C1218.41,1113.46 1207.99,1116.37 1198.36,1117.55C1190.58,1118.49 1182.65,1118.13 1175.09,1116.04C1172.45,1115.31 1169.59,1115.3 1166.99,1114.45C1166.59,1114.33 1166.05,1114.17 1165.51,1114.03C1165.49,1114.28 1165.46,1114.52 1165.43,1114.72C1165.12,1116.52 1164.38,1118.24 1163.78,1119.96C1161.86,1125.47 1158.55,1130.64 1154.43,1134.79C1147.38,1141.91 1138.25,1149.84 1130.89,1158.66C1123.77,1167.18 1118.26,1176.53 1118.2,1186.85C1118.18,1190.97 1120.07,1197.6 1122.7,1201.31C1123.87,1202.97 1126.32,1204 1129.02,1204.72C1133.48,1205.91 1138.72,1206.1 1141.36,1205.62C1145.53,1204.87 1151.51,1201.89 1155.16,1199.59C1164.92,1193.43 1169.38,1179.99 1172.89,1169.63C1174.16,1165.9 1176.11,1161.82 1176.52,1157.86C1177.04,1152.89 1176.59,1149.63 1175.58,1145.29C1175.34,1144.42 1175.13,1143.54 1174.94,1142.64L1174.93,1142.57L1174.92,1142.52C1174.46,1140.22 1174.73,1137.61 1174.82,1136.4C1174.82,1136.11 1174.86,1135.98 1174.86,1135.95C1175.11,1134.81 1175.97,1134.63 1176.22,1134.58C1176.68,1134.47 1177.14,1134.52 1177.6,1134.81C1177.8,1134.94 1178.12,1135.18 1178.32,1135.71C1178.33,1135.74 1178.44,1136.09 1178.43,1136.53C1178.43,1137.6 1178.24,1140.21 1178.4,1141.49L1178.41,1141.52C1178.42,1141.58 1178.43,1141.64 1178.44,1141.7L1178.74,1142.97C1178.83,1143.34 1178.92,1143.7 1179.01,1144.06L1179.08,1144.39C1181.81,1154.42 1187.82,1162.45 1196.71,1169.93C1221.85,1191.07 1243.1,1209.29 1276.12,1211.48C1279.55,1211.7 1285.18,1211.71 1288.62,1211.5C1295.41,1211.06 1302.47,1210.68 1308.31,1207.97C1311.5,1206.49 1314.09,1203.59 1315.45,1200.06C1315.78,1199.21 1315.85,1197.44 1315.81,1195.7C1315.77,1193.95 1315.62,1192.21 1315.3,1191.44C1312.6,1184.99 1306.23,1182.05 1300.05,1179.24C1298.05,1178.49 1296.06,1177.71 1294.08,1176.9C1288.76,1174.73 1283.5,1172.35 1278.32,1169.91C1273.42,1167.78 1268.58,1165.56 1263.88,1163.03C1263.59,1162.88 1263.29,1162.72 1262.99,1162.56C1258.43,1160.38 1253.97,1158.29 1249.63,1156.41C1249.01,1156.18 1248.36,1155.91 1247.69,1155.59C1234.21,1150.16 1230.61,1147.82 1232.36,1147.58C1231.31,1147.3 1230.23,1147.04 1229.16,1146.82L1229.07,1146.8C1229.03,1146.79 1228.99,1146.79 1228.95,1146.78L1228.83,1146.75C1227.73,1146.52 1226.65,1146.32 1225.65,1146.15C1224.14,1145.89 1219.65,1144.91 1219.65,1144.91C1218.68,1144.7 1218.06,1143.74 1218.27,1142.77C1218.47,1141.8 1219.42,1141.17 1220.39,1141.37C1220.39,1141.37 1226.9,1142.7 1227.83,1142.86C1228.84,1143.03 1229.08,1143.1 1229.3,1143.16L1229.81,1143.26C1230.02,1143.3 1230.33,1143.35 1230.8,1143.41C1232.02,1143.58 1233.31,1143.95 1234.64,1144.48C1235.07,1144.61 1235.49,1144.75 1235.89,1144.88C1240.76,1146.59 1242.08,1147.66 1243.38,1148.78C1243.8,1149.14 1244.22,1149.52 1244.79,1149.93C1246.08,1150.69 1247.34,1151.4 1248.53,1151.99L1248.6,1152.03L1248.68,1152.06L1249.39,1152.33C1250.45,1152.74 1251.94,1153.33 1252.3,1153.49C1252.48,1153.58 1252.64,1153.68 1252.76,1153.78C1256.72,1155.46 1261.18,1157.54 1264.72,1159.39C1269.66,1161.76 1274.72,1164.23 1279.85,1166.64C1286.97,1169.73 1294.19,1172.59 1301.24,1175.81L1301.45,1175.9C1315.28,1181.04 1329.39,1184.32 1343.24,1182.82C1350.75,1182.01 1356.46,1182.61 1362.86,1178.64C1365.16,1177.21 1367.02,1174.24 1367.5,1170.73C1367.99,1167.12 1367,1163.37 1365.22,1160.72C1364.16,1159.14 1362.83,1157.93 1361.33,1157.55C1359.57,1157.1 1356.86,1157.13 1353.82,1157.27L1353.79,1157.27C1349.2,1157.98 1344.39,1158.13 1339.69,1157.84C1339.39,1157.83 1339.1,1157.82 1338.82,1157.8C1336,1157.65 1332.92,1157.21 1329.8,1156.56C1327.27,1156.06 1324.85,1155.44 1322.6,1154.72C1319.06,1153.65 1315.69,1152.37 1312.84,1151.03L1312.84,1151.02C1310.89,1150.21 1308.94,1149.39 1306.99,1148.59C1305.05,1147.87 1303.12,1147.19 1301.18,1146.47C1299.98,1146.15 1298.61,1145.8 1297.54,1145.35C1296.66,1144.99 1295.94,1144.54 1295.45,1144.05C1294.73,1143.73 1294.1,1143.44 1293.67,1143.25C1293.6,1143.22 1293.53,1143.19 1293.47,1143.16L1293.38,1143.12C1293.37,1143.12 1293.35,1143.1 1293.34,1143.08C1292.17,1142.43 1292.39,1141.62 1292.97,1140.97C1293.06,1140.1 1293.51,1139.39 1294.78,1139.81C1294.81,1139.81 1294.83,1139.81 1294.84,1139.82L1294.93,1139.86C1295.33,1139.94 1296.12,1140.13 1296.77,1140.47C1297.09,1140.64 1297.38,1140.84 1297.62,1141.07C1298.92,1141.66 1300.33,1142.28 1301.09,1142.57C1301.55,1142.75 1302.01,1142.92 1302.47,1143.1C1303.26,1143.31 1303.99,1143.51 1304.5,1143.7C1305.8,1144.2 1307.1,1144.73 1308.39,1145.26C1310.38,1146 1312.37,1146.8 1314.38,1147.75C1317.16,1148.9 1319.96,1150.02 1322.83,1150.99C1323.22,1151.13 1323.63,1151.26 1324.04,1151.38C1326.63,1152.16 1329.32,1152.82 1331.95,1153.31C1333.86,1153.65 1335.82,1153.92 1337.81,1154.11C1338.21,1154.14 1338.61,1154.17 1339.01,1154.19C1343.21,1154.42 1348.83,1153.87 1353.66,1153.66L1353.97,1153.64C1359.29,1152.73 1364.25,1150.97 1368.26,1148.14C1373.61,1144.37 1378.85,1139.3 1375.62,1132.46C1373.54,1128.04 1369.6,1124.93 1365.13,1122.6C1360.43,1120.15 1355.13,1118.57 1350.53,1117.38C1328.67,1111.71 1306.59,1110.62 1284.22,1108.13C1273.36,1106.93 1262.46,1105.89 1251.63,1104.33C1248.16,1103.84 1244.59,1103.3 1241.16,1102.53C1239.87,1102.24 1239.29,1102.03 1238.26,1101.49L1237.22,1101.46Z"/>
        <path d="M1105.25,814.472L1091.9,823.766L1064.74,832.292L1123.39,909.977C1123.62,868.972 1114.22,830.245 1105.25,814.472Z"/>
        <path d="M1105.25,814.472L1091.9,823.766L1064.74,832.292L1123.39,909.977C1123.62,868.972 1114.22,830.245 1105.25,814.472ZM1103.94,819.789C1111.32,835.308 1118.43,865.709 1119.61,898.977C1119.61,898.972 1070.71,834.205 1070.71,834.205C1070.71,834.205 1093.51,827.048 1093.51,827.048L1103.94,819.789Z"/>
        <path d="M963.907,838.017L1036.16,836.685C1081.8,874.298 1107.56,933.507 1123.4,993.46C1110.45,1170.56 990.536,1206.33 882.163,1161.02C874.615,1157.86 887.819,1146.22 908.472,1137.99C932.865,1128.28 961.751,1119.83 961.256,1119.47C961.665,1115.54 932.854,1113.72 903.887,1118.47C883.169,1121.87 861.677,1130.82 853.929,1134.73C841.076,1141.22 795.166,1073.64 801.505,1035.22C804.773,1015.42 819.963,989.369 835.776,975.551C883.244,934.075 956.278,900.267 963.907,838.017Z" style="fill:url(#_Linear3);stroke:black;stroke-width:3.61px;stroke-linecap:butt;"/>
        <path d="M921.988,909.977C961.321,886.798 1011.21,864.339 1053.2,851.714C1055.15,849.504 1055.96,847.437 1055.86,845.532C1055.53,839.313 1045.57,834.815 1034.5,832.702L964.366,836.685C965.472,858.475 945.236,883.19 921.988,909.977Z"/>
        <path d="M811.384,1007.78C895.759,962.597 993.489,920.907 1085.86,899.049C1108.1,919.645 1115.41,943.188 1116.4,969.624C1004.91,990.068 905.15,1031.14 813.049,1088.12C798.463,1058.35 796.286,1034.96 811.384,1007.78Z"/>
        <path d="M836.794,1123.99C914.566,1086.68 1012.24,1059.05 1116.4,1047.73C1109.33,1069.52 1100.61,1092.38 1089.13,1112.65C1031.02,1116.14 974.471,1132.7 920.696,1172.29C902.429,1169.48 888.571,1164.7 879.498,1157.78C885.997,1144.55 919.739,1132.6 962.153,1119.12C933.052,1110.48 895.114,1117.62 851.678,1135.53C844.11,1131.64 838.11,1128.49 836.794,1123.99Z"/>
        <path d="M778.315,1001.75C779.228,1003.86 779.219,1006.88 780.117,1009.21C782.208,1014.65 786.009,1020.84 789.912,1025.13C791.344,1026.7 793.447,1028.48 794.984,1029.5C795.123,1029.6 795.997,1030.59 796.209,1030.38C796.71,1029.88 796.654,1026.42 796.908,1025.65C798.126,1022 799.919,1017.86 801.805,1014.46C806.884,1005.32 813.602,998.576 820.157,990.382C822.141,987.902 825.124,984.892 827.386,982.63C843.748,966.268 864.141,955.02 881.561,939.777C893.989,928.903 905.993,916.357 914.808,902.733C925.322,886.484 944.679,871.086 958.301,857.464C961.452,854.314 968.385,849.676 964.943,846.679C964.517,846.308 960.953,845.309 960.617,844.805C959.454,843.06 956.933,841.934 955.195,840.957C950.937,838.562 946.435,835.586 941.553,834.835C939.559,834.529 937.304,833.771 935.606,835.185C933.602,836.855 929.012,840.585 927.626,842.717C925.911,845.354 924.046,847.463 921.988,849.83C917.558,854.924 914.991,858.593 910.648,863.804C903.761,872.068 898.489,881.083 891.181,889.055C867.755,914.611 846.624,942.232 820.598,965.005C812.094,972.445 808.643,975.021 799.556,982.424C793.026,987.744 786.148,992.941 779.238,1000.69C778.407,1001.62 779.429,1008.18 780.117,1009.21"/>
        <path d="M787.716,992.614C785.784,991.801 784.053,990.557 782.189,989.601C778.116,987.512 773.336,985.524 768.723,985.078C766.036,984.818 763.087,984.697 760.485,985.541C749.39,989.142 746.669,1003.01 750.412,1012.8C751.867,1016.61 754.17,1019.76 756.582,1023.02C764.054,1033.1 777.012,1041.41 790.041,1040.99C804.839,1040.51 806.806,1019.68 798.038,1010.92C796.83,1009.71 796.903,1011.91 795.228,1011.77C792.688,1011.56 788.821,1009.83 787.324,1007.77C785.234,1004.9 784.685,1000.77 785.547,997.33C785.848,996.124 786.254,994.845 787.108,993.895C787.313,993.668 788.652,992.213 788.279,992.958" style="fill:white;"/>
        <path d="M795.254,1009.96C793.144,1009.74 790.004,1008.38 788.785,1006.71C786.997,1004.25 786.563,1000.72 787.3,997.769C787.532,996.841 787.794,995.834 788.451,995.104C788.501,995.049 788.694,994.851 788.88,994.661C789.306,994.512 789.677,994.202 789.895,993.766C790.499,992.559 789.92,991.841 789.754,991.633C789.438,991.235 789.004,990.967 788.404,990.943C786.519,990.148 784.834,988.927 783.014,987.993C778.746,985.805 773.73,983.747 768.897,983.28C765.97,982.996 762.762,982.903 759.928,983.823C747.836,987.746 744.645,1002.78 748.724,1013.45C750.239,1017.41 752.619,1020.7 755.13,1024.09C762.932,1034.62 776.495,1043.23 790.099,1042.79C798.448,1042.52 803.244,1036.59 804.65,1029.41C806.008,1022.47 804.096,1014.42 799.316,1009.64C798.115,1008.44 797.178,1008.63 796.47,1008.95C796.186,1009.08 795.905,1009.28 795.638,1009.55C795.542,1009.65 795.355,1009.85 795.254,1009.96ZM785.214,993.396C783.922,992.688 782.675,991.881 781.365,991.209C777.486,989.22 772.942,987.302 768.549,986.877C766.101,986.64 763.413,986.491 761.043,987.26C750.943,990.537 748.693,1003.25 752.1,1012.15C753.495,1015.8 755.72,1018.82 758.033,1021.94C765.176,1031.58 777.528,1039.58 789.983,1039.18C796.432,1038.97 800.018,1034.26 801.103,1028.71C802.173,1023.25 800.906,1016.93 797.406,1012.89C796.835,1013.34 796.109,1013.66 795.078,1013.58C792.107,1013.33 787.614,1011.24 785.862,1008.83C783.472,1005.55 782.808,1000.83 783.794,996.892C784.094,995.692 784.51,994.447 785.214,993.396Z"/>
        <path d="M753.918,987.688C754.8,987.913 751.432,984.58 750.769,983.956C749.223,982.501 747.919,980.815 746.495,979.247C743.062,975.469 739.429,971.885 736.049,968.056C725.576,956.191 714.604,945.112 700.837,937.04C697.338,934.989 688.559,930.855 684.602,934.759C679.431,939.86 680.128,947.596 683.803,953.251C690.104,962.945 700.353,971.573 710.716,976.684C714.579,978.589 718.726,979.883 722.741,981.408C723.96,981.871 725.286,982.374 726.552,982.707C727.054,982.839 728.085,982.98 728.085,982.98C728.085,982.98 726.553,982.583 725.805,982.328C723.892,981.675 721.948,981.184 720.013,980.604C714.971,979.091 710.338,976.922 705.752,974.367C701.291,971.881 696.78,969.411 692.512,966.602C689.22,964.435 685.914,962.279 682.558,960.207C679.759,958.478 676.985,956.746 674.206,954.983C667.514,950.738 659.06,948.066 651.114,947.863C647.56,947.772 643.608,947.559 640.654,949.927C638.609,951.565 637.794,953.914 636.979,956.305C636.402,957.998 635.45,959.832 635.408,961.648C635.173,971.682 642.813,979.152 650.192,984.701C657.855,990.463 667.238,990.718 676.219,994.253C684.395,997.471 691.638,1000.19 699.973,1002.85C706.682,1004.99 713.596,1007.81 720.002,1010C721.835,1010.62 723.664,1011.25 725.456,1011.98C726.198,1012.28 726.897,1012.6 727.659,1012.86C727.958,1012.96 728.555,1013.16 728.555,1013.16C728.555,1013.16 726.978,1012.59 726.278,1012.13C724.832,1011.2 722.884,1010.6 721.238,1010.04C716.568,1008.45 711.898,1006.86 707.229,1005.27C701.996,1003.48 696.732,1001.81 691.5,1000.03C687.986,998.834 684.304,997.405 680.845,996.056C677.703,994.83 674.627,993.362 671.269,992.59C668.45,991.942 665.841,991.259 663.084,990.415C661.386,989.894 659.445,989.311 657.764,988.738C653.767,987.376 650.285,986.111 646.104,985.684C643.798,985.449 640.61,986.655 638.522,988.026C636.783,989.169 633.719,994.346 633.658,995.844C633.172,1007.85 641.383,1014.91 650.863,1020.91C656.026,1024.18 663.408,1027.27 669.141,1029.46C681.48,1034.17 695.585,1035.43 708.71,1035.42C716.983,1035.41 725.073,1035.73 733.223,1037.27C735.665,1037.73 738.096,1038.19 740.553,1038.52C741.518,1038.64 742.404,1038.9 743.319,1039.21C743.73,1039.35 744.963,1039.77 744.552,1039.63C742.73,1039.01 740.277,1039.38 738.376,1039.4C729.143,1039.5 721.997,1042.92 717.814,1051.28C716.529,1053.85 715.256,1056.49 715.288,1059.43C715.339,1064.12 715.789,1069.48 718.638,1073.45C719.072,1074.06 720.902,1076.51 721.763,1076.39C730.91,1075.15 739.876,1072.41 749.309,1072.65C751.846,1072.71 754.435,1072.82 756.905,1073.49C759.348,1074.14 762.219,1075.51 764.717,1075.52C765.544,1075.53 766.986,1072.56 767.398,1072.06C772.92,1065.33 779.298,1059.49 784.753,1052.71C786.488,1050.55 792.386,1045.1 789.778,1046.04C767.939,1053.86 731.957,995.871 753.918,987.688Z" style="fill:white;"/>
        <path d="M687.721,961.325C686.324,960.429 684.92,959.542 683.508,958.669C680.715,956.944 677.947,955.217 675.174,953.457C668.215,949.043 659.423,946.268 651.161,946.057C647.196,945.955 642.82,945.875 639.524,948.517C637.2,950.379 636.195,953.004 635.269,955.722C634.635,957.582 633.648,959.612 633.601,961.606C633.383,970.936 639.462,978.256 646.238,983.882C643.585,983.632 639.921,984.945 637.53,986.516C636.336,987.301 634.53,989.698 633.314,991.9C632.428,993.504 631.883,995.022 631.853,995.771C631.338,1008.49 639.857,1016.09 649.897,1022.44C655.152,1025.76 662.661,1028.92 668.496,1031.15C681.037,1035.94 695.371,1037.23 708.711,1037.23C716.03,1037.22 723.204,1037.47 730.406,1038.61C724.268,1040.27 719.425,1044.03 716.198,1050.47C714.786,1053.3 713.446,1056.22 713.481,1059.45C713.536,1064.49 714.106,1070.23 717.17,1074.51C717.516,1074.99 718.652,1076.49 719.632,1077.31C720.496,1078.03 721.401,1078.27 722.007,1078.18C731.058,1076.95 739.928,1074.22 749.263,1074.45C751.659,1074.52 754.105,1074.61 756.437,1075.23C759.018,1075.92 762.066,1077.31 764.704,1077.33C765.222,1077.33 765.894,1077.12 766.524,1076.52C767.375,1075.7 768.446,1073.63 768.795,1073.21C774.321,1066.47 780.702,1060.63 786.161,1053.84C787.124,1052.64 789.382,1050.42 790.727,1048.87C791.578,1047.88 792.082,1047.01 792.183,1046.58C792.436,1045.49 791.972,1044.82 791.313,1044.42C790.99,1044.22 790.291,1043.93 789.169,1044.34C784.417,1046.04 778.967,1044.14 773.642,1040.41C765.075,1034.42 756.922,1023.63 752.421,1013.29C749.981,1007.69 748.604,1002.23 748.92,997.777C749.192,993.954 750.774,990.93 754.239,989.503L754.24,989.5C754.646,989.452 754.936,989.276 755.133,989.127C755.473,988.87 755.712,988.526 755.819,988.077C755.889,987.785 755.915,986.974 755.26,986.097C754.525,985.113 752.519,983.122 752.007,982.641C750.496,981.218 749.225,979.565 747.832,978.032C744.406,974.26 740.778,970.683 737.403,966.86C726.803,954.851 715.686,943.651 701.751,935.482C699.514,934.17 695.244,932.077 691.28,931.497C688.196,931.046 685.302,931.53 683.333,933.473C677.525,939.202 678.161,947.885 682.288,954.235C683.875,956.676 685.704,959.052 687.721,961.325ZM751.175,986.996C750.505,986.278 749.768,985.496 749.53,985.272C747.95,983.785 746.613,982.065 745.157,980.462C741.719,976.677 738.08,973.088 734.694,969.252C724.349,957.531 713.523,946.572 699.923,938.599C697.962,937.449 694.232,935.581 690.757,935.073C688.881,934.798 687.069,934.864 685.871,936.045C681.337,940.519 682.096,947.308 685.318,952.266C691.45,961.701 701.43,970.09 711.516,975.064C715.237,976.899 719.228,978.154 723.102,979.614C724.203,979.927 725.3,980.246 726.388,980.617C727.023,980.834 728.258,981.157 728.498,981.22C730.753,981.809 728.085,984.786 728.085,984.786C728.085,984.786 726.743,984.626 726.092,984.455C724.766,984.106 723.376,983.582 722.1,983.097L721.952,983.042C721.133,982.809 720.313,982.58 719.494,982.334C714.325,980.784 709.574,978.564 704.873,975.945C700.373,973.438 695.823,970.944 691.519,968.111C688.241,965.953 684.95,963.807 681.609,961.744C678.803,960.012 676.024,958.276 673.238,956.509C666.813,952.433 658.697,949.865 651.068,949.669C647.924,949.589 644.398,949.242 641.784,951.337C640.019,952.751 639.393,954.824 638.689,956.888C638.168,958.415 637.252,960.052 637.214,961.691C636.994,971.124 644.341,978.04 651.278,983.256C653.491,984.921 655.859,986.094 658.32,987.019L658.347,987.028C659.994,987.59 661.894,988.16 663.562,988.671C666.228,989.4 668.951,990.043 671.673,990.829L671.674,990.829C675.112,991.62 678.267,993.11 681.483,994.365C686.064,996.131 690.462,997.756 695.075,999.328C696.881,999.931 698.689,1000.52 700.497,1001.12L700.523,1001.13C701.345,1001.39 702.17,1001.66 702.997,1001.94C704.604,1002.48 706.209,1003.01 707.812,1003.56C712.481,1005.15 717.151,1006.74 721.821,1008.33C723.6,1008.94 725.695,1009.61 727.259,1010.62C727.787,1010.96 728.919,1011.37 729.139,1011.45L729.173,1011.47C729.658,1011.64 729.885,1011.93 729.949,1012.26C730.183,1013.36 728.555,1014.97 728.555,1014.97C728.555,1014.97 728.329,1014.99 727.955,1014.87C727.856,1014.83 727.345,1014.66 727.076,1014.57C726.28,1014.3 725.548,1013.97 724.773,1013.65C723.015,1012.94 721.219,1012.32 719.419,1011.71C713.804,1009.79 707.798,1007.39 701.882,1005.38L700.749,1005.01L699.407,1004.57C697.526,1003.96 695.7,1003.36 693.908,1002.75C692.911,1002.42 691.914,1002.08 690.918,1001.74C687.379,1000.54 683.671,999.098 680.188,997.739L680.175,997.734C678.661,997.151 677.126,996.552 675.557,995.934C673.992,995.318 672.415,994.804 670.837,994.345C667.985,993.689 665.345,992.997 662.555,992.142L662.229,992.053C660.534,991.584 658.863,991.073 657.228,990.465L657.181,990.449C653.319,989.133 649.959,987.894 645.921,987.482C643.966,987.282 641.284,988.374 639.514,989.536C638.622,990.123 637.386,992.001 636.477,993.647C635.945,994.611 635.482,995.467 635.463,995.917C635.006,1007.22 642.908,1013.74 651.829,1019.38C656.901,1022.59 664.155,1025.62 669.785,1027.77C681.922,1032.4 695.8,1033.62 708.709,1033.61C717.096,1033.61 725.297,1033.93 733.558,1035.49C735.967,1035.95 738.366,1036.41 740.79,1036.72C741.874,1036.87 742.872,1037.15 743.902,1037.5L745.204,1037.94L745.245,1037.96C747.174,1038.65 747.253,1039.61 746.664,1040.35C746.681,1041.29 746.03,1042.01 744.08,1041.38L744.038,1041.36L743.969,1041.34C742.326,1040.78 740.111,1041.19 738.395,1041.21C729.894,1041.3 723.281,1044.39 719.43,1052.09C718.273,1054.4 717.066,1056.77 717.095,1059.41C717.142,1063.75 717.471,1068.72 720.107,1072.4C720.345,1072.73 721.602,1074.11 721.999,1074.54C731.075,1073.25 739.989,1070.6 749.356,1070.84C752.034,1070.91 754.765,1071.04 757.373,1071.74C759.495,1072.31 761.949,1073.49 764.164,1073.69C764.573,1073.05 765.745,1071.22 766.002,1070.91C771.52,1064.19 777.894,1058.35 783.345,1051.57C783.946,1050.83 785.06,1049.68 786.135,1048.55C781.485,1048.72 776.459,1046.79 771.571,1043.38C762.516,1037.05 753.865,1025.66 749.108,1014.74C746.404,1008.53 744.965,1002.46 745.316,997.521C745.645,992.879 747.49,989.17 751.175,986.996ZM753.391,985.961C753.645,985.866 753.964,985.836 754.363,985.937C754.042,985.856 753.706,985.864 753.391,985.961Z"/>
        <path d="M806.109,1072.67C795.451,1070.49 781.277,1071.42 771.387,1072.05C768.385,1072.24 766.768,1077.91 764.047,1076.4C753.842,1070.75 738.721,1070.94 718.771,1078.92C715.741,1080.13 718.375,1072.63 714.701,1073.85C668.709,1089.07 617.641,1120.43 577.238,1163.42C574.522,1185.51 581.995,1200.06 597.332,1208.8C625.254,1172.67 650.088,1139.45 682.412,1122.96C721.383,1103.08 769.547,1102.91 830.175,1118.52C819.161,1104.26 810.545,1089.18 806.109,1072.67Z" style="fill:rgb(255,156,0);stroke:black;stroke-width:3.61px;stroke-linecap:butt;"/>
        <path d="M778.315,1241.07L803.274,1297.88C824.391,1193.31 879.657,1132.26 956.87,1119.17C864.191,1110.17 800.365,1151.33 778.315,1241.07Z" style="fill:rgb(255,156,0);stroke:black;stroke-width:3.61px;stroke-linecap:butt;"/>
        <path d="M598.303,1208.8C619.254,1177.59 645.59,1148.61 670.433,1130.08L658.374,1098.32C630.731,1114.26 603.467,1135.29 576.689,1162.89C574.322,1185.65 581.395,1200.25 598.303,1208.8Z"/>
        <g transform="matrix(1,0,0,1,202.071,68.641)">
            <path d="M601.084,1229.24C609.223,1188.92 626.04,1131.55 650.882,1113.02C642.86,1105.07 642.379,1099.26 628.105,1082.89C600.015,1104.56 578.035,1150.51 576.245,1172.48C577.995,1179.03 589.433,1199.99 601.084,1229.24Z"/>
        </g>
        <path d="M463.183,1045.08C476.316,1041.6 495.995,1037.36 520.734,1055.73C546.978,1075.22 573.596,1120.19 576.245,1166.02C576.861,1189.43 583.094,1202.56 599.498,1208.8C629.193,1249.78 619.989,1289.24 605.151,1300.99C589.153,1313.64 558.318,1313.77 538.728,1304.7C521.285,1296.62 501.722,1287.82 485.578,1272.17C459.676,1247.05 439.592,1211.02 428.78,1182.67C402.731,1114.36 434.994,1052.55 463.183,1045.08Z" style="stroke:black;stroke-width:3.61px;stroke-linecap:butt;"/>
        <g transform="matrix(0.967781,0,0,0.987566,228.456,106.56)">
            <path d="M472.296,1051.13C484.101,1044.63 516.737,1041.81 541.475,1060.18C567.72,1079.67 565.516,1102.01 568.165,1147.84C575.397,1167.84 587.667,1191.83 599.137,1200.61C628.832,1241.59 619.989,1289.24 605.151,1300.99C589.153,1313.64 558.318,1313.77 538.728,1304.7C521.285,1296.62 501.722,1287.82 485.578,1272.17C459.676,1247.05 439.592,1211.02 428.78,1182.67C402.731,1114.36 446.835,1065.14 472.296,1051.13Z" style="stroke:black;stroke-width:3.7px;stroke-linecap:butt;"/>
        </g>
        <path d="M641.707,1119.22C641.923,1119.48 642.817,1120.51 643.021,1120.76C644.758,1122.87 646.147,1125.36 647.456,1127.75C647.957,1128.66 648.399,1129.62 648.857,1130.56C648.91,1130.66 649.082,1131.04 649.201,1131.3C649.244,1131.71 649.428,1132.11 649.751,1132.42C650.477,1133.11 651.148,1132.97 651.428,1132.91C651.917,1132.81 652.314,1132.55 652.595,1132.1C652.739,1131.87 652.937,1131.46 652.857,1130.86C652.817,1130.57 652.263,1129.3 652.102,1128.97C651.619,1127.98 651.152,1126.97 650.624,1126.01C649.209,1123.43 647.689,1120.74 645.81,1118.46C645.527,1118.12 644.797,1117.11 644.133,1116.53C643.492,1115.96 642.805,1115.71 642.295,1115.69C641.299,1115.66 640.464,1116.44 640.433,1117.44C640.407,1118.27 640.948,1118.99 641.707,1119.22ZM651.297,1129.33C651.641,1129.38 651.972,1129.54 652.243,1129.8C651.903,1129.47 651.573,1129.36 651.297,1129.33Z" style="fill:white;"/>
        <path d="M619.21,1137.81C619.637,1138.21 620.555,1139.06 620.762,1139.28C623.605,1142.26 626.032,1145.79 627.877,1149.48C628.389,1150.5 628.709,1151.56 629.08,1152.62C629.139,1152.8 629.362,1153.28 629.511,1153.59C629.559,1154 629.742,1154.38 630.058,1154.68C631.029,1155.61 631.904,1155.17 632.187,1155.03C632.63,1154.81 633.324,1154.29 633.173,1153.15C633.156,1153.02 633.106,1152.79 632.99,1152.51C632.865,1152.21 632.569,1151.66 632.494,1151.44C632.071,1150.22 631.692,1149.03 631.109,1147.86C629.106,1143.86 626.468,1140.03 623.381,1136.79C623.087,1136.48 622.261,1135.57 621.499,1134.96C620.983,1134.56 620.463,1134.27 620.053,1134.16C618.99,1133.86 618.176,1134.19 617.626,1134.97C617.051,1135.78 617.246,1136.91 618.061,1137.49C618.409,1137.73 618.815,1137.84 619.21,1137.81ZM632.413,1151.95L632.476,1152L632.463,1151.99L632.413,1151.95ZM632.111,1151.76C632.215,1151.81 632.315,1151.87 632.409,1151.95C632.306,1151.87 632.206,1151.81 632.111,1151.76ZM620.534,1137.11C620.55,1137.09 620.565,1137.07 620.579,1137.05L620.534,1137.11Z" style="fill:white;"/>
        <path d="M594.226,1160.25C594.569,1160.42 594.9,1160.66 595.223,1160.9C595.94,1161.46 596.596,1162.11 597.154,1162.62C599.537,1164.82 602.004,1167.56 603.7,1170.33C604.952,1172.38 605.908,1174.66 606.846,1176.88C607.173,1177.64 607.481,1178.44 607.771,1179.22C607.834,1179.39 608.04,1180.06 608.083,1180.18C608.544,1181.47 609.783,1181.4 609.858,1181.4C610.253,1181.38 610.614,1181.25 610.935,1180.99C611.16,1180.81 611.469,1180.49 611.573,1179.9C611.631,1179.57 611.594,1179.24 611.482,1178.95C611.445,1178.84 611.22,1178.13 611.16,1177.96C610.85,1177.13 610.521,1176.29 610.173,1175.46C609.166,1173.09 608.127,1170.64 606.784,1168.45C604.921,1165.4 602.223,1162.38 599.605,1159.96C598.198,1158.67 596.208,1156.82 594.205,1156.47C593.504,1156.35 593.114,1156.6 592.947,1156.7C592.511,1156.95 592.272,1157.31 592.147,1157.69C592.015,1158.1 591.929,1158.72 592.445,1159.38C592.522,1159.47 592.686,1159.66 592.966,1159.83C593.194,1159.97 593.695,1160.17 593.93,1160.22C594.029,1160.24 594.128,1160.25 594.226,1160.25ZM608.606,1178.23C608.399,1178.41 608.141,1178.69 608.031,1179.19C608.119,1178.8 608.326,1178.47 608.606,1178.23ZM608.651,1178.19L608.629,1178.21L608.68,1178.17L608.651,1178.19ZM609.548,1177.8C609.238,1177.84 608.949,1177.96 608.688,1178.16C608.935,1177.97 609.231,1177.84 609.548,1177.8ZM609.605,1177.79L609.571,1177.8L609.605,1177.79Z" style="fill:white;"/>
        <path d="M821.827,1172.44C822.341,1172.65 824.277,1173.46 824.627,1173.62C828.099,1175.21 831.233,1178.18 833.686,1181.07C834.592,1182.14 835.494,1183.16 836.351,1184.26L836.451,1184.39C836.48,1185.1 836.935,1185.76 837.649,1186.02C838.908,1186.47 839.558,1185.87 839.85,1185.54C840.199,1185.16 840.481,1184.56 840.268,1183.75C840.145,1183.29 839.312,1182.18 839.203,1182.04C838.314,1180.9 837.381,1179.84 836.442,1178.73C833.66,1175.45 830.068,1172.14 826.131,1170.34C825.597,1170.09 823.37,1168.98 822.227,1168.81C821.224,1168.66 820.517,1169.02 820.133,1169.42C819.436,1170.13 819.449,1171.27 820.162,1171.97C820.617,1172.42 821.249,1172.57 821.827,1172.44Z" style="fill:white;"/>
        <path d="M809.145,1197.63C809.603,1197.88 811.251,1198.78 811.53,1198.93C814.841,1200.67 818.187,1202.63 820.388,1205.73C821.223,1206.9 822.176,1207.94 823.09,1209.05L823.215,1209.21C823.226,1209.94 823.685,1210.63 824.415,1210.89C825.18,1211.16 825.69,1210.99 825.977,1210.86C826.436,1210.66 826.745,1210.33 826.933,1209.9C827.088,1209.55 827.21,1208.96 826.902,1208.25C826.692,1207.77 826.011,1206.91 825.882,1206.75C825.022,1205.71 824.12,1204.74 823.334,1203.63C820.803,1200.07 817.021,1197.73 813.212,1195.73C812.783,1195.5 810.895,1194.29 809.835,1194.04C808.939,1193.84 808.239,1194.07 807.8,1194.4C807.007,1195.01 806.854,1196.14 807.459,1196.94C807.868,1197.47 808.52,1197.72 809.145,1197.63ZM825.527,1207.45L825.528,1207.45L825.527,1207.45Z" style="fill:white;"/>
        <path d="M808.316,1248.82C808.344,1249.53 808.799,1250.19 809.515,1250.45C810.454,1250.78 811.489,1250.29 811.824,1249.35C811.999,1248.86 812.006,1248.21 811.719,1247.53C811.502,1247.01 811.024,1246.39 810.856,1246.09C810.116,1244.74 809.623,1243.26 808.869,1241.9C805.872,1236.48 801.899,1231.45 797.047,1227.58C796.283,1226.97 795.321,1226.02 794.327,1225.36C793.367,1224.72 792.357,1224.34 791.415,1224.34C790.417,1224.35 789.611,1225.16 789.615,1226.16C789.619,1227.15 790.432,1227.96 791.429,1227.96C791.863,1227.95 792.272,1228.31 792.706,1228.64C793.471,1229.22 794.194,1229.92 794.792,1230.4C799.277,1233.98 802.937,1238.64 805.707,1243.65C806.459,1245.01 806.95,1246.48 807.687,1247.82C807.789,1248.01 808.161,1248.58 808.316,1248.82Z" style="fill:white;"/>
        <path d="M685.152,1177.66C686.663,1176.18 688.303,1175.75 690.1,1175.56C691.549,1175.4 693.09,1175.4 694.744,1175.26C711.46,1173.93 724.764,1185.1 735.094,1197.35C750.32,1215.4 757.294,1240.75 763.697,1262.84C768.928,1280.89 773.408,1300.19 781.859,1317.05C786.972,1327.25 793.892,1336.78 800.997,1345.66C801.62,1346.44 802.758,1346.56 803.537,1345.94C804.316,1345.32 804.442,1344.18 803.819,1343.4C796.87,1334.72 790.09,1325.41 785.09,1315.43C776.735,1298.76 772.339,1279.67 767.168,1261.83C760.631,1239.28 753.402,1213.45 737.857,1195.02C726.788,1181.89 712.367,1170.23 694.455,1171.66C689.82,1172.03 686.03,1171.73 682.619,1175.08C681.908,1175.78 681.898,1176.93 682.597,1177.64C683.296,1178.35 684.441,1178.36 685.152,1177.66Z" style="fill:rgb(255,103,0);"/>
        <path d="M464.17,1086.17L464.279,1086.14C465.58,1085.89 467.029,1085.79 467.439,1085.75C473.8,1085.13 480.091,1085.9 486.08,1088.17C501.52,1094.03 514.62,1106.05 523.821,1119.54C551.671,1160.39 558.657,1210.92 577.714,1255.66C578.105,1256.58 579.167,1257.01 580.084,1256.61C581.002,1256.22 581.43,1255.16 581.039,1254.24C561.89,1209.29 554.79,1158.55 526.807,1117.51C517.199,1103.41 503.484,1090.91 487.361,1084.8C480.848,1082.33 474.008,1081.48 467.091,1082.15C466.552,1082.2 464.421,1082.36 462.819,1082.77C461.85,1083.01 461.044,1083.39 460.585,1083.78C459.901,1084.37 459.647,1085.08 459.713,1085.82C459.768,1086.43 460.126,1087.35 461.483,1088.18C462.333,1088.71 463.446,1088.44 463.968,1087.59C464.24,1087.15 464.298,1086.63 464.17,1086.17Z" style="fill:rgb(254,103,0);"/>
        <path d="M1158.12,822.723C1158.87,822.3 1160.65,821.301 1161.38,820.962C1167.83,817.984 1167.36,817.874 1173.74,814.656C1179.01,811.992 1191.39,806.391 1196.29,804.397C1231.01,790.265 1266.99,780.781 1304.27,776.642C1317.37,775.188 1330.67,774.852 1343.83,775.259C1345.23,775.303 1357.24,775.802 1361.15,776.223C1361.51,776.491 1361.98,776.625 1362.46,776.565C1363.59,776.421 1364.01,775.83 1364.12,775.669C1364.47,775.14 1364.51,774.601 1364.32,774.063C1364.21,773.769 1364.01,773.364 1363.48,773.063C1363.26,772.941 1362.23,772.682 1360.65,772.544C1356.01,772.137 1345.27,771.689 1343.94,771.647C1330.61,771.235 1317.14,771.578 1303.87,773.051C1266.26,777.227 1229.95,786.792 1194.93,801.05C1189.98,803.068 1177.45,808.734 1172.11,811.429C1165.79,814.618 1166.26,814.73 1159.87,817.681C1158.83,818.16 1156.24,819.62 1155.89,819.836C1154.64,820.604 1155.06,821.894 1155.08,821.954C1155.09,821.984 1156.09,823.848 1157.9,822.862C1157.98,822.82 1158.05,822.774 1158.12,822.723Z"/>
        <path d="M1330.8,847.703C1331.01,847.753 1331.23,847.768 1331.45,847.739C1332.15,847.652 1332.46,847.284 1332.6,847.12C1332.91,846.761 1333.03,846.368 1333.04,845.968C1333.04,845.602 1333,844.846 1332.09,844.355C1332.06,844.339 1331.72,844.186 1331.08,844.087C1328.45,843.678 1314.4,841.715 1312.17,841.489C1297.24,839.983 1282.38,839.456 1267.38,839.3C1240.9,839.026 1212.98,841.369 1187.48,848.832C1177.12,851.867 1165.98,854.726 1156.21,859.416C1155.08,859.958 1153.76,861.076 1152.49,862.167C1151.55,862.969 1150.68,863.788 1149.95,864.032C1149.01,864.347 1148.49,865.371 1148.81,866.317C1149.12,867.263 1150.15,867.775 1151.09,867.46C1151.97,867.168 1153.04,866.421 1154.14,865.501C1155.37,864.476 1156.66,863.206 1157.77,862.675C1167.37,858.067 1178.32,855.281 1188.5,852.3C1213.66,844.936 1241.22,842.644 1267.34,842.914C1282.24,843.068 1296.98,843.59 1311.81,845.085C1314.02,845.308 1327.92,847.253 1330.53,847.658L1330.8,847.703ZM1329.42,846.06C1329.43,846.098 1329.43,846.135 1329.43,846.173C1329.5,846.721 1329.81,847.18 1330.24,847.46C1329.55,847.028 1329.44,846.433 1329.42,846.06ZM1329.74,844.915C1329.59,845.14 1329.49,845.376 1329.45,845.617C1329.5,845.362 1329.6,845.123 1329.74,844.915ZM1330.9,844.169C1330.32,844.27 1330.03,844.571 1329.88,844.738C1330.14,844.45 1330.5,844.243 1330.9,844.169Z"/>
        <path d="M1251.93,624.047C1252.32,642.855 1243.54,662.952 1233.96,678.584C1233.43,679.434 1233.7,680.548 1234.55,681.069C1235.4,681.59 1236.52,681.323 1237.04,680.473C1246.96,664.288 1255.94,643.446 1255.54,623.974C1255.52,622.977 1254.7,622.184 1253.7,622.204C1252.7,622.224 1251.91,623.05 1251.93,624.047Z"/>
    </g>
    <g transform="matrix(0.806638,0,0,0.806638,198.002,64.7264)">
        <path d="M255.315,1104.81C244.374,1111.74 243.486,1125.61 250.639,1139.23C260.001,1157.05 282.765,1173.45 304.229,1167.49C332.11,1159.74 352.958,1139.39 369.485,1113.85C393.14,1077.3 407.917,1030.03 423.469,997.12C427.646,988.28 441.171,964.141 448.912,946.61C452.688,938.061 454.997,930.81 454.997,926.983C454.997,923.569 452.226,920.798 448.812,920.798C445.399,920.798 442.627,923.569 442.627,926.983C442.627,929.864 440.44,935.176 437.597,941.613C429.898,959.046 416.439,983.045 412.285,991.835C396.931,1024.33 382.453,1071.04 359.1,1107.13C344.288,1130.02 325.907,1148.63 300.918,1155.57C284.936,1160.01 268.561,1146.74 261.59,1133.48C259.831,1130.12 258.672,1126.75 258.411,1123.62C258.128,1120.21 259.003,1117.12 261.931,1115.26C264.816,1113.44 265.675,1109.61 263.849,1106.73C262.023,1103.85 258.199,1102.99 255.315,1104.81Z" style="fill:white;"/>
    </g>
    <g transform="matrix(0.806638,0,0,0.806638,198.002,64.7264)">
        <path d="M630.856,871.839C630.938,872.447 631.075,873.441 631.115,873.661C631.749,877.151 631.949,876.893 632.732,880.183C634.237,886.502 634.61,892.667 633.116,899.02C629.55,914.171 619.525,925.06 608.022,934.837C605.32,937.134 602.324,940.131 599.026,942.54C596.692,944.244 594.24,945.757 591.504,945.757C588.09,945.757 585.319,948.528 585.319,951.941C585.319,955.355 588.09,958.126 591.504,958.126C595.86,958.126 600.007,956.6 603.854,954.202C608.37,951.386 612.46,947.299 616.034,944.262C629.565,932.76 640.963,919.677 645.156,901.853C647.103,893.579 646.725,885.548 644.765,877.318C644.06,874.354 643.857,874.592 643.285,871.448C643.19,870.924 642.871,868.543 642.64,867.849C642.292,866.803 641.799,866.117 641.456,865.707C639.947,863.904 638.17,863.472 636.682,863.472C635.106,863.472 633.215,863.911 631.669,866.011C630.385,867.754 630.153,869.95 630.856,871.839ZM635.583,875.771L635.648,875.78L635.531,875.761L635.583,875.771ZM634.539,875.491C634.843,875.605 635.148,875.689 635.452,875.745C635.143,875.685 634.838,875.601 634.539,875.491ZM641.427,873.606C640.618,874.591 639.558,875.266 638.408,875.605C639.413,875.333 640.484,874.773 641.427,873.606Z" style="fill:white;"/>
    </g>
    <g transform="matrix(0.806638,0,0,0.806638,198.002,64.7264)">
        <path d="M768.506,1199.69C767.733,1199.57 766.721,1199.39 765.933,1199.19C762.526,1198.34 758.923,1197.05 757.656,1196.63C741.368,1191.2 724.445,1181.24 712.537,1168.79C699.038,1154.68 694.995,1136.03 695.945,1116.98C696.94,1097.02 703.423,1076.58 711.046,1059.87C712.463,1056.76 711.092,1053.09 707.986,1051.67C704.881,1050.26 701.209,1051.63 699.792,1054.74C691.569,1072.76 684.664,1094.83 683.59,1116.37C682.47,1138.83 687.674,1160.69 703.598,1177.34C716.842,1191.19 735.628,1202.33 753.744,1208.36C755.407,1208.92 760.652,1210.77 764.941,1211.65C767.499,1212.18 769.825,1212.34 771.401,1212.12C773.677,1211.8 775.267,1210.79 776.297,1209.65C777.449,1208.38 778.149,1206.81 778.149,1204.82C778.149,1201.41 775.378,1198.63 771.964,1198.63C770.684,1198.63 769.494,1199.02 768.506,1199.69ZM765.787,1204.54C765.782,1204.63 765.78,1204.73 765.78,1204.82L765.787,1204.54Z" style="fill:white;"/>
    </g>
    <g transform="matrix(0.806638,0,0,0.806638,198.002,64.7264)">
        <path d="M1029.8,1010.6C1030.69,1010.3 1031.53,1009.8 1032.23,1009.1C1034.15,1007.19 1034.12,1005.25 1034.02,1004.18C1033.87,1002.44 1033.12,1000.93 1031.57,999.773C1031.43,999.667 1029.12,997.628 1025.5,998.995C1024.3,999.447 1017.84,1002.14 1016.22,1002.95C1010.73,1005.69 1005.6,1008.67 1000.79,1012.52C984.332,1025.69 967.277,1045.82 961.725,1066.61C960.845,1069.91 962.808,1073.3 966.106,1074.18C969.404,1075.06 972.796,1073.1 973.677,1069.8C978.586,1051.42 993.962,1033.82 1008.52,1022.18C1012.64,1018.88 1017.05,1016.36 1021.75,1014.01C1023.09,1013.34 1029.12,1010.87 1029.8,1010.6ZM1023.87,1009.45L1023.89,1009.47L1023.78,1009.37L1023.87,1009.45ZM1021.72,1005.43C1021.87,1006.77 1022.46,1008.07 1023.49,1009.1L1023.7,1009.3C1022.5,1008.24 1021.88,1006.93 1021.72,1005.43ZM1021.7,1005.26L1021.7,1005.29L1021.69,1005.12L1021.7,1005.26ZM1023.24,1000.62C1021.71,1002.29 1021.62,1003.96 1021.68,1005C1021.61,1003.44 1022.13,1001.86 1023.24,1000.62Z" style="fill:white;"/>
    </g>
    <g transform="matrix(0.806638,0,0,0.806638,198.002,64.7264)">
        <path d="M1219.34,1227.12C1213.19,1186.9 1240.61,1161.11 1267.51,1134.86C1278.17,1124.45 1288.94,1114.27 1300.59,1104.95C1305.67,1100.89 1320.71,1090.39 1330.63,1081.76C1335.65,1077.39 1339.39,1073.27 1340.78,1070.48C1342.3,1067.42 1341.05,1063.71 1337.99,1062.19C1334.94,1060.67 1331.22,1061.92 1329.7,1064.98C1328.76,1066.88 1325.93,1069.44 1322.51,1072.43C1312.73,1080.94 1297.87,1091.29 1292.87,1095.29C1280.9,1104.86 1269.82,1115.32 1258.87,1126.01C1229.08,1155.07 1200.31,1184.45 1207.11,1228.98C1207.63,1232.36 1210.79,1234.68 1214.16,1234.16C1217.54,1233.65 1219.86,1230.49 1219.34,1227.12Z" style="fill:white;"/>
    </g>
    <g transform="matrix(0.806638,0,0,0.806638,198.002,64.7264)">
        <path d="M1525.41,858.777C1525.58,862.675 1525.43,866.344 1524.9,870.271C1522.87,885.273 1519.31,900.578 1514.68,915.003C1505.05,945.044 1495.66,975.205 1486.39,1005.36C1481.46,1021.4 1477.51,1037.74 1470.45,1052.97C1469.02,1056.07 1470.37,1059.75 1473.46,1061.18C1476.56,1062.62 1480.24,1061.27 1481.67,1058.17C1488.96,1042.43 1493.12,1025.57 1498.21,1009C1507.47,978.888 1516.84,948.775 1526.46,918.781C1531.31,903.674 1535.03,887.645 1537.16,871.933C1537.82,867.091 1537.98,862.581 1537.75,857.751C1537.72,857.013 1536.65,853.256 1536.23,851.788C1536.13,850.621 1535.71,849.469 1534.93,848.482C1532.51,845.415 1529.75,845.981 1528.68,846.215C1526.85,846.616 1524.28,847.768 1523.84,851.584C1523.8,851.975 1523.75,852.719 1523.95,853.732C1524.11,854.509 1525.16,857.949 1525.41,858.777ZM1530.07,858.49C1528.24,858.491 1526.43,857.682 1525.21,856.135C1526.89,858.272 1528.76,858.577 1530.07,858.49Z" style="fill:white;"/>
    </g>
    <g transform="matrix(0.806638,0,0,0.806638,198.002,64.7264)">
        <path d="M1829.71,1154.54C1830.23,1154.04 1830.67,1153.43 1831,1152.74C1832.82,1148.9 1830.69,1146.57 1830.37,1146.14C1829.43,1144.93 1828.21,1144.17 1826.71,1143.86C1825.75,1143.67 1824.48,1143.6 1822.99,1144.25C1822.66,1144.39 1821.57,1144.85 1820.46,1146.24C1819.75,1147.12 1817.05,1151.26 1816.11,1152.2C1811.73,1156.63 1806.81,1161.24 1801.96,1165.15C1786.34,1177.77 1767.84,1187.79 1748.74,1193.89C1715.38,1204.55 1673.74,1203.72 1643.49,1183.96C1636.98,1179.71 1629.89,1174.63 1624.07,1169.45C1622.82,1168.33 1621.87,1166.55 1620.77,1165.02C1619.39,1163.13 1617.88,1161.47 1616.2,1160.35C1613.36,1158.45 1609.52,1159.22 1607.62,1162.06C1605.73,1164.89 1606.49,1168.74 1609.33,1170.63C1610.43,1171.37 1611.14,1172.83 1612.03,1174.11C1613.22,1175.83 1614.47,1177.46 1615.85,1178.68C1622.1,1184.26 1629.73,1189.74 1636.72,1194.31C1670.02,1216.06 1715.79,1217.41 1752.5,1205.67C1773.05,1199.11 1792.94,1188.35 1809.74,1174.78C1814.92,1170.59 1820.2,1165.66 1824.9,1160.91C1825.78,1160.02 1828.65,1156.04 1829.71,1154.54ZM1819.6,1152.21C1819.06,1150.72 1819.08,1149.01 1819.82,1147.45C1818.84,1149.53 1819.12,1151.14 1819.6,1152.21Z" style="fill:white;"/>
    </g>
    <g transform="matrix(1.2554,0,0,1.33028,-321.358,378.671)">
        <path d="M1038.15,378.284C1037.24,369.389 1036.89,335.992 1036.89,326.862C1036.89,181.935 1154.43,64.101 1299.36,64.101C1444.29,64.101 1561.95,181.764 1561.95,326.691C1561.95,335.821 1560.46,370.746 1559.55,379.641L1519.61,353.738C1520.69,344.882 1521.25,335.851 1521.25,326.691C1521.25,204.228 1421.83,104.803 1299.36,104.803C1176.9,104.803 1075.33,203.959 1075.33,326.423C1075.33,335.583 1074.9,350.768 1075.98,359.624L1038.15,378.284Z" style="fill:rgb(255,124,0);stroke:black;stroke-width:14.07px;"/>
    </g>
    <defs>
        <linearGradient id="_Linear1" x1="0" y1="0" x2="1" y2="0" gradientUnits="userSpaceOnUse" gradientTransform="matrix(-372.477,-391.232,391.232,-372.477,927.596,751.83)"><stop offset="0" style="stop-color:rgb(255,176,0);stop-opacity:1"/><stop offset="0.59" style="stop-color:rgb(255,163,0);stop-opacity:1"/><stop offset="0.81" style="stop-color:rgb(255,133,0);stop-opacity:1"/><stop offset="1" style="stop-color:rgb(255,103,0);stop-opacity:1"/></linearGradient>
        <linearGradient id="_Linear2" x1="0" y1="0" x2="1" y2="0" gradientUnits="userSpaceOnUse" gradientTransform="matrix(-62.963,-137.106,137.106,-62.963,1226.67,818.182)"><stop offset="0" style="stop-color:rgb(151,200,213);stop-opacity:1"/><stop offset="1" style="stop-color:rgb(39,167,202);stop-opacity:1"/></linearGradient>
        <linearGradient id="_Linear3" x1="0" y1="0" x2="1" y2="0" gradientUnits="userSpaceOnUse" gradientTransform="matrix(-244.022,-208.052,208.052,-244.022,1064.74,1070.28)"><stop offset="0" style="stop-color:rgb(255,176,0);stop-opacity:1"/><stop offset="0.49" style="stop-color:rgb(255,157,0);stop-opacity:1"/><stop offset="1" style="stop-color:rgb(255,103,0);stop-opacity:1"/></linearGradient>
    </defs>
</svg>
