<?xml version="1.0" encoding="UTF-8"?>
<svg id="Layer_1" data-name="Layer 1" xmlns="http://www.w3.org/2000/svg" viewBox="0 0 841.89 595.28">
  <defs>
    <style>
      .cls-1 {
        fill: #fff;
        stroke: #231f20;
        stroke-miterlimit: 10;
      }

      .cls-2, .cls-3 {
        fill: #f47c20;
        fill-rule: evenodd;
      }

      .cls-3 {
        stroke: #010101;
        stroke-linecap: round;
        stroke-linejoin: round;
        stroke-width: 13.8px;
      }

      .cls-4 {
        fill: #010101;
      }
    </style>
  </defs>
  <rect class="cls-1" width="841.89" height="595.28"/>
  <g>
    <g>
      <path class="cls-4" d="m444.92,207.34c-175.35,0-168.07,134.42-111.34,134.42,22.75,0,37.01-11.58,39.44-22.51,2.12-10.93-11.53-11.9-11.53-26.05,0-29.91,31.55-62.71,82.21-62.71,81,0,41.26,86.83-5.16,90.69,6.07-19.3,12.74-38.91,20.33-58.85,3.03-7.72,7.89-7.72,7.28-12.54-1.21-12.22-29.12-17.37-40.35.64-11.23,18.33-39.13,73.64-57.03,109.98-5.76,12.22-31.55,66.89-50.66,66.89-14.26,0-11.22-28.3,5.16-32.16,16.38-3.86,15.77-28.62-15.17-28.62-65.83,0-84.94,126.38-3.94,126.38,30.64,0,52.79-10.29,70.08-28.3,11.53,9.65,31.55,21.22,62.19,21.22,88.58,0,129.23-109.66,55.52-146.64,92.23-32.16,68.56-131.85-47.02-131.85h0Zm-2.73,207.42c-26.7,0-24.88-28.94-24.88-28.94,4.25-11.9,8.19-24.12,12.44-36.98h.3c68.26,3.54,55.52,65.92,12.14,65.92h0Z"/>
      <path class="cls-2" d="m296.31,404.86c-6.69,4.23-7.23,12.72-2.86,21.04,5.72,10.9,19.64,20.93,32.77,17.28,17.05-4.74,29.8-17.18,39.9-32.79,14.46-22.35,23.5-51.25,33.01-71.38,2.55-5.4,10.82-20.17,15.56-30.89,2.31-5.23,3.72-9.66,3.72-12,0-2.09-1.69-3.78-3.78-3.78s-3.78,1.69-3.78,3.78c0,1.76-1.34,5.01-3.08,8.95-4.71,10.66-12.94,25.33-15.48,30.71-9.39,19.87-18.24,48.43-32.52,70.5-9.06,14-20.3,25.37-35.58,29.62-9.77,2.71-19.78-5.4-24.05-13.51-1.07-2.05-1.78-4.11-1.94-6.03-.17-2.09.36-3.98,2.15-5.11,1.76-1.12,2.29-3.45,1.17-5.22-1.12-1.76-3.45-2.29-5.22-1.17h0Z"/>
      <path class="cls-2" d="m525.94,262.41c.05.37.13.98.16,1.11.39,2.13.51,1.98.99,3.99.92,3.86,1.15,7.63.23,11.52-2.18,9.26-8.31,15.92-15.34,21.9-1.65,1.4-3.48,3.24-5.5,4.71-1.43,1.04-2.93,1.97-4.6,1.97-2.09,0-3.78,1.7-3.78,3.78s1.69,3.78,3.78,3.78c2.66,0,5.2-.93,7.55-2.4,2.76-1.72,5.26-4.22,7.45-6.08,8.27-7.03,15.24-15.03,17.81-25.93,1.19-5.06.96-9.97-.24-15-.43-1.81-.55-1.67-.91-3.59-.06-.32-.25-1.78-.39-2.2-.21-.64-.51-1.06-.72-1.31-.92-1.1-2.01-1.37-2.92-1.37-.96,0-2.12.27-3.07,1.55-.78,1.07-.93,2.41-.5,3.56h0Zm2.89,2.4h.04s-.07,0-.07,0h.03Zm-.64-.17c.19.07.37.12.56.15-.19-.04-.37-.09-.56-.15h0Zm4.21-1.15c-.5.6-1.14,1.02-1.85,1.22.61-.17,1.27-.51,1.85-1.22h0Z"/>
    </g>
    <path class="cls-3" d="m172.38,419.81c-.87-8.97-1.21-42.65-1.21-51.85,0-146.15,111.87-264.97,249.78-264.97s249.89,118.65,249.89,264.8c0,9.21-1.41,44.43-2.28,53.39l-38.01-26.12c1.03-8.93,1.56-18.04,1.56-27.27,0-123.49-94.62-223.75-211.16-223.75s-213.2,99.99-213.2,223.48c0,9.24-.41,24.55.62,33.48l-36,18.82h0Z"/>
  </g>
</svg>